<svg width="57" height="57" viewBox="0 0 57 57" fill="none" xmlns="http://www.w3.org/2000/svg">
<path d="M31.1707 26.6299H25.5598V21.4643H31.1707V26.6299ZM31.1707 9.08459H25.5598V14.3393H31.1707V9.08459ZM37.9394 21.6424H32.3285V26.719H37.9394V21.6424ZM24.491 15.319H18.8802V20.4846H24.491V15.319ZM31.1707 15.319H25.5598V20.4846H31.1707V15.319ZM55.1286 23.958C53.8817 23.0674 51.0317 22.8002 48.8942 23.2455C48.627 21.108 47.3801 19.3268 45.4207 17.7237L44.1738 17.0112L43.4613 18.258C41.9473 20.6627 41.413 24.6705 43.1052 27.2533C42.3927 27.6096 40.8785 28.233 39.0082 28.233H1.06761C0.35511 32.5971 1.60198 38.3862 4.80823 42.3049C7.92542 46.0455 12.8238 47.9158 19.0582 47.9158C32.5957 47.9158 42.7489 41.6815 47.3802 30.2815C49.1614 30.2815 53.2582 30.2815 55.3066 26.3627C55.3957 26.2737 55.9302 25.2049 56.0192 24.8487L55.1286 23.958ZM11.0427 21.6424H5.34261V26.719H10.9536V21.6424H11.0427ZM17.7223 21.6424H12.1114V26.719H17.7223V21.6424ZM24.491 21.6424H18.8802V26.719H24.491V21.6424ZM17.7223 15.319H12.1114V20.4846H17.7223V15.319Z" fill="white"/>
</svg>
