<svg width="57" height="57" viewBox="0 0 57 57" fill="none" xmlns="http://www.w3.org/2000/svg">
<path d="M28.9445 42.1267C28.4991 42.1267 28.1429 42.0377 27.7866 41.8595L20.6616 39.0095C19.5929 38.5642 18.8804 37.6736 18.7023 36.6048L17.9007 32.1517C17.7226 31.083 18.4351 30.0142 19.5038 29.8361C20.5726 29.658 21.6413 30.3705 21.8195 31.4392L22.532 35.447L28.9445 38.0298L35.357 35.358L36.9601 27.4314H20.2163C18.7023 27.4314 17.3663 26.3627 17.0991 24.7595L15.8523 17.6345C15.6741 16.6548 15.9413 15.5861 16.5648 14.7845L16.6538 14.6955C17.3663 13.983 18.257 13.5377 19.3257 13.5377H39.9882C41.057 13.5377 42.0366 14.4283 42.0366 15.5861C42.0366 16.7439 41.146 17.6345 39.9882 17.6345H19.8601L20.9288 23.5127H38.0288C39.0085 23.5127 39.8991 23.958 40.5226 24.6705C41.146 25.383 41.4132 26.3627 41.146 27.3423L39.2757 36.5158C39.0976 37.5845 38.3851 38.4752 37.4054 38.8314L30.2804 41.7705C29.8351 42.0377 29.3898 42.1267 28.9445 42.1267Z" fill="white"/>
<path d="M28.4999 55.3967C27.9656 55.3967 27.4312 55.3077 26.8968 55.2186L12.8249 51.9233C10.064 51.2998 7.92652 48.8952 7.57027 46.0452L3.20621 9.26234C3.02808 7.30297 3.65152 5.34359 4.89839 3.82953C6.23433 2.40453 8.10464 1.60297 10.064 1.60297H46.9359C48.8952 1.60297 50.7656 2.40453 52.1015 3.91859C53.4374 5.34359 54.0609 7.39203 53.7937 9.26234L49.4296 46.0452C49.0734 48.8952 46.9359 51.2998 44.1749 51.9233L30.1031 55.2186C29.5687 55.3967 29.0343 55.3967 28.4999 55.3967ZM10.064 5.61078C9.26244 5.61078 8.46089 5.96704 7.92652 6.59048C7.39214 7.12485 7.12496 7.9264 7.21402 8.81703L11.5781 45.5998C11.7562 46.7577 12.5577 47.7373 13.8046 48.0936L27.8765 51.3889C28.3218 51.478 28.7671 51.478 29.2124 51.3889L43.1952 48.0936C44.3531 47.8264 45.2437 46.8467 45.4218 45.5998L49.7859 8.81703C49.8749 7.9264 49.6077 7.12484 49.0734 6.5014C48.539 5.87797 47.7374 5.52172 46.9359 5.52172H10.064V5.61078Z" fill="white"/>
</svg>
