<svg width="58" height="58" viewBox="0 0 58 58" fill="none" xmlns="http://www.w3.org/2000/svg">
<path d="M51.2895 0H6.15474C2.75681 0 0 2.75681 0 6.15474V51.2895C0 54.6874 2.75681 57.4442 6.15474 57.4442H51.2895C54.6874 57.4442 57.4442 54.6874 57.4442 51.2895V6.15474C57.4442 2.75681 54.6874 0 51.2895 0ZM31.2609 44.8013C31.2609 50.3919 27.9784 52.9435 23.1957 52.9435C18.8745 52.9435 16.3742 50.7125 15.0919 48.0069L19.49 45.3527C20.3363 46.8529 21.1056 48.1223 22.9649 48.1223C24.7343 48.1223 25.8627 47.4299 25.8627 44.7244V26.3756H31.2609V44.8013ZM44.032 52.9435C39.0185 52.9435 35.7744 50.5586 34.1973 47.4299L38.5953 44.8911C39.7493 46.776 41.2624 48.1736 43.9166 48.1736C46.1477 48.1736 47.5838 47.0581 47.5838 45.5066C47.5838 43.6602 46.122 43.0062 43.6473 41.9163L42.301 41.3393C38.403 39.6852 35.8257 37.5952 35.8257 33.1971C35.8257 29.1452 38.9159 26.0679 43.7243 26.0679C47.1607 26.0679 49.6226 27.2603 51.392 30.389L47.1863 33.0817C46.2631 31.4276 45.263 30.7737 43.7114 30.7737C42.1343 30.7737 41.1341 31.7738 41.1341 33.0817C41.1341 34.6973 42.1343 35.3513 44.4551 36.3642L45.8015 36.9412C50.3919 38.9031 52.9692 40.9162 52.9692 45.4296C52.9692 50.2765 49.1481 52.9435 44.032 52.9435Z" fill="white"/>
</svg>
