<svg width="58" height="60" viewBox="0 0 58 60" fill="none" xmlns="http://www.w3.org/2000/svg">
<path d="M57.4164 13.3797C57.4074 13.3529 57.3965 13.3266 57.3841 13.3012C57.3676 13.2515 57.3471 13.2032 57.3229 13.1568C57.3041 13.1279 57.2833 13.1005 57.2605 13.0748C57.2351 13.0368 57.2073 13.0006 57.1773 12.9662C57.1508 12.9408 57.1173 12.92 57.0884 12.8969C57.0554 12.8685 57.0207 12.8423 56.9844 12.8183L45.8655 6.41677C45.725 6.33567 45.5656 6.29297 45.4034 6.29297C45.2412 6.29297 45.0819 6.33567 44.9414 6.41677L33.8201 12.8218C33.7844 12.846 33.7505 12.8726 33.7185 12.9015C33.687 12.9226 33.6569 12.9458 33.6284 12.9708C33.5981 13.0046 33.5703 13.0405 33.5452 13.0782C33.5256 13.1059 33.5001 13.1302 33.4828 13.1602C33.4595 13.2069 33.4394 13.2552 33.4228 13.3046C33.4135 13.3312 33.3985 13.3554 33.3904 13.3832C33.3692 13.4615 33.3584 13.5423 33.3581 13.6234V25.7797L24.0919 31.1151V7.32815C24.0921 7.24658 24.0812 7.16537 24.0595 7.08673C24.0526 7.05901 24.0364 7.03475 24.0272 7.00818C24.011 6.9589 23.991 6.911 23.9671 6.86495C23.951 6.83492 23.9244 6.81066 23.9047 6.78179C23.8793 6.74387 23.8516 6.70761 23.8216 6.67321C23.7928 6.64856 23.7627 6.62542 23.7315 6.6039C23.6991 6.57581 23.6652 6.54959 23.6298 6.52535L12.5074 0.123803C12.3669 0.0426982 12.2076 0 12.0454 0C11.8832 0 11.7238 0.0426982 11.5833 0.123803L0.463198 6.52535C0.427095 6.54896 0.393087 6.57563 0.361549 6.60506C0.329693 6.6262 0.299214 6.64935 0.270296 6.67436C0.240421 6.70816 0.213013 6.74406 0.188284 6.78179C0.167493 6.81066 0.14208 6.83492 0.124754 6.86495C0.101084 6.91094 0.0813758 6.95885 0.065844 7.00818C0.0532281 7.03333 0.0420443 7.05917 0.0323462 7.08558C0.0110958 7.16469 0.000223701 7.24623 3.4255e-06 7.32815V45.4117C-0.000439346 45.5744 0.0420489 45.7342 0.123176 45.8752C0.204303 46.0161 0.321194 46.1332 0.462042 46.2145L22.6977 59.0176C22.7471 59.0425 22.7985 59.0634 22.8513 59.08C22.8756 59.0892 22.8987 59.1031 22.9241 59.11C23.0792 59.1516 23.2425 59.1516 23.3977 59.11C23.4208 59.1042 23.4404 59.0915 23.4612 59.0846C23.517 59.0671 23.5711 59.0447 23.6229 59.0176L45.8655 46.2145C46.0063 46.1332 46.1232 46.0161 46.2043 45.8752C46.2855 45.7342 46.3279 45.5744 46.3275 45.4117V33.2532L56.9821 27.1184C57.1238 27.0366 57.2413 26.9187 57.3224 26.7766C57.4036 26.6345 57.4456 26.4735 57.4442 26.3099V13.6211C57.4448 13.5398 57.4355 13.4587 57.4164 13.3797ZM12.0442 1.99622L21.3069 7.32699L12.043 12.6612L2.78148 7.32815L12.0442 1.99622ZM22.2379 8.9268V32.1812L16.8633 35.2757L12.9717 37.5166V14.2657L18.3464 11.1712L22.2379 8.9268ZM22.2379 56.6069L1.85278 44.8757V8.93142L5.7443 11.17L11.1178 14.2657V39.1211C11.1202 39.156 11.1248 39.1907 11.1317 39.225C11.1344 39.2708 11.1406 39.3164 11.1502 39.3613C11.1619 39.3971 11.1766 39.4319 11.1941 39.4653C11.2069 39.5051 11.2231 39.5437 11.2426 39.5808C11.2639 39.6121 11.2871 39.6422 11.3119 39.6709C11.335 39.705 11.3605 39.7374 11.3881 39.7679C11.4147 39.7933 11.4482 39.8118 11.4771 39.8349C11.5086 39.8623 11.5418 39.8878 11.5764 39.9111L22.2252 45.9384L22.2379 56.6069ZM23.162 44.3433L13.9143 39.1083L23.6275 33.5165L34.2845 27.3818L43.5403 32.7103L36.7483 36.5868L23.162 44.3433ZM44.4759 44.8711L24.0896 56.6127V45.95L39.189 37.333L44.4759 34.3124V44.8711ZM44.4759 31.1104L40.5844 28.8776L35.2097 25.7831V15.2232L39.1012 17.4641L44.4759 20.5609V31.1104ZM45.4 18.9496L36.1361 13.6165L45.4 8.28457L54.6615 13.6153L45.4 18.9496ZM46.324 31.1104V20.5609L51.7103 17.4641L55.6006 15.2232V25.7797L46.324 31.1104Z" fill="white"/>
</svg>
