<svg width="100" height="55" viewBox="0 0 100 55" fill="none" xmlns="http://www.w3.org/2000/svg">
<path d="M0.00416667 50.002H4.00417V35.2415L9.56042 47.8603C10.2458 49.4332 11.1833 49.9895 13.0229 49.9895C14.8625 49.9895 15.7625 49.4332 16.4479 47.8603L22.0042 35.5644V50.002H26.0042V34.8811C26.0042 33.429 25.4271 32.7249 24.2354 32.3624C21.3875 31.4665 19.475 32.2394 18.6104 34.179L12.9125 47.0124L7.39375 34.179C6.56458 32.2415 4.61875 31.4665 1.76875 32.3624C0.577083 32.7249 0 33.4269 0 34.879V49.9999L0.00416667 50.002Z" fill="white"/>
<path d="M28.002 38.002H32.002V46.4499C31.9707 46.8665 32.1353 47.9728 34.0645 48.002C35.0478 48.0186 39.9415 48.002 40.002 48.002V38.002H44.002C44.0186 38.002 44.002 50.4353 44.002 50.4874C44.0228 53.554 40.1936 53.9499 38.4332 54.0019H28.004V52.002C28.0249 52.002 37.977 52.004 38.0061 52.002C40.2728 51.7624 40.004 50.5145 40.004 50.1353V50.002H33.729C30.2499 49.9707 28.0311 48.4374 28.0061 46.6895C28.002 46.527 28.0811 38.077 28.002 38.002Z" fill="white"/>
<path d="M46.0021 50.002H56.0167C57.3292 50.002 58.6042 49.727 59.6167 49.252C61.3042 48.477 62 47.429 62 46.052V43.202C62 40.127 58.1875 40.002 56 40.002H52C50.4271 40.002 50.1875 39.052 50 38.002V36.002C50.1875 35.202 50.5375 34.127 51.9229 34.002C53.5334 34.002 61.9979 34.002 61.9979 34.002V32.002H52.4854C50.9125 32.002 45.9979 32.1895 45.9979 36.002V38.4749C45.9979 40.2249 47.5354 41.6499 50.8729 41.9999C51.2479 42.0249 51.6229 42.0499 51.9959 42.0499C51.9959 42.0499 55.8834 41.9749 55.9959 41.9999C58.2459 41.9999 57.9958 43.7499 57.9958 43.9999V45.9999C57.9958 46.2749 57.9334 47.9999 55.9729 47.9999C55.8229 47.9999 45.9958 47.9999 45.9958 47.9999V50.002H46.0021Z" fill="white"/>
<path d="M84 45.9165C84 48.3311 85.3646 49.6853 88.9833 49.9561C89.3208 49.979 89.6604 49.9999 90 49.9999H100V47.9999H90.7604C88.6958 47.9999 88 47.1332 88 45.8936V31.9999H84V45.9165Z" fill="white"/>
<path d="M63.9668 46.002V36.002C63.9668 33.877 65.0085 32.4103 67.9585 32.002H69.3585H76.5397H77.6335C80.5835 32.4103 81.9668 33.8749 81.9668 36.002V45.9645C81.9668 47.6874 81.5189 48.6124 80.0585 49.2124L83.1585 51.9999H78.6585L76.4293 49.9999H73.8105L69.3605 50.0249C68.7168 50.0249 68.0376 49.9353 67.2918 49.7311C65.0543 49.1207 63.9668 47.9457 63.9668 46.002ZM67.9668 46.002C68.171 46.9749 68.9522 48.002 70.3418 48.002H74.2251L72.0001 46.002H76.5314L77.6126 47.0061C77.6126 47.0061 78.0001 46.6895 78.0001 46.002C78.0001 45.3145 77.9668 36.002 77.9668 36.002C77.7626 35.0978 76.846 34.002 75.4918 34.002H70.3439C68.7835 34.002 67.9689 35.1436 67.9689 36.2061L67.9668 46.002Z" fill="white"/>
<path d="M96.248 29.8936C94.1001 29.8353 92.4605 30.0353 91.0584 30.6248C90.6605 30.7936 90.0251 30.7978 89.9584 31.2978C90.1771 31.5269 90.2105 31.8707 90.3855 32.1519C90.7188 32.6936 91.2855 33.4207 91.7896 33.7999C92.3417 34.2165 92.9105 34.6623 93.5001 35.0228C94.5501 35.6623 95.723 36.029 96.7355 36.6707C97.3313 37.0478 97.923 37.5269 98.5063 37.9519C98.7938 38.1644 98.9855 38.4915 99.3605 38.6249C99.3605 38.604 99.3605 38.5853 99.3605 38.5644C99.1646 38.3144 99.1125 37.9707 98.9334 37.7082C98.6688 37.4436 98.4042 37.179 98.1396 36.9144C97.3646 35.8853 96.3771 34.979 95.3313 34.229C94.4959 33.629 92.6271 32.8186 92.2771 31.8478C92.2563 31.8269 92.2376 31.8082 92.2146 31.7853C92.8063 31.7186 93.5 31.504 94.0459 31.3582C94.9646 31.1123 95.7834 31.1769 96.7313 30.9311C97.1584 30.8082 97.5855 30.6874 98.0126 30.5644C98.0126 30.4832 98.0126 30.4019 98.0126 30.3207C97.5334 29.829 97.1896 29.179 96.6688 28.7332C95.3001 27.5686 93.8084 26.4061 92.273 25.4353C91.4209 24.8978 90.3667 24.5478 89.4646 24.0915C89.1605 23.9374 88.6271 23.8582 88.4271 23.604C87.9521 22.9999 87.6959 22.2311 87.3292 21.529C86.5625 20.054 85.8084 18.4415 85.1313 16.8894C84.6667 15.8311 84.3646 14.7853 83.7875 13.8353C81.0146 9.27693 78.0292 6.52485 73.4084 3.82068C72.425 3.24568 71.2396 3.0186 69.9876 2.72068C69.3146 2.6811 68.6438 2.63943 67.9709 2.59777C67.5605 2.42485 67.1355 1.92485 66.748 1.6811C65.2167 0.712352 61.2876 -1.39182 60.1542 1.37485C59.4376 3.12068 61.225 4.82485 61.8646 5.71027C62.3125 6.3311 62.8876 7.02693 63.2084 7.72693C63.4188 8.18527 63.4563 8.64569 63.6355 9.1311C64.0792 10.3269 64.7813 11.6894 65.3563 12.7957C65.6459 13.3561 65.9667 13.9436 66.3334 14.4436C66.5584 14.7498 66.9438 14.8853 67.0063 15.3603C66.6292 15.8874 66.6084 16.7061 66.3959 17.3769C65.4417 20.3874 65.8021 24.1269 67.1896 26.3519C67.6146 27.0353 68.6188 28.5019 69.998 27.9394C71.2042 27.4478 70.9355 25.9249 71.2792 24.5811C71.3563 24.2769 71.3084 24.054 71.4625 23.8499C71.4625 23.8707 71.4625 23.8894 71.4625 23.9123C71.8292 24.6436 72.1938 25.379 72.5626 26.1103C73.3771 27.4207 74.8209 28.7894 76.0417 29.7144C76.6751 30.1936 77.1751 31.0228 77.9959 31.3019C77.9959 31.2811 77.9959 31.2624 77.9959 31.2394C77.975 31.2394 77.9563 31.2394 77.9334 31.2394C77.7751 30.9915 77.5251 30.8894 77.323 30.6894C76.8459 30.2207 76.3126 29.6394 75.9188 29.1019C74.8063 27.5915 73.823 25.9373 72.9271 24.2165C72.5001 23.3936 72.1271 22.4894 71.7667 21.6519C71.6271 21.329 71.6292 20.8415 71.3396 20.6749C70.9438 21.2874 70.3646 21.7832 70.0584 22.5061C69.5709 23.6624 69.5063 25.0749 69.3271 26.5353C69.2188 26.5728 69.2667 26.5478 69.2042 26.5957C68.3542 26.3894 68.0542 25.5165 67.7376 24.7644C66.9376 22.8644 66.7896 19.8061 67.4938 17.6207C67.675 17.054 68.498 15.2728 68.1667 14.7499C68.0084 14.2269 67.4834 13.9249 67.1917 13.5269C66.8271 13.0353 66.4667 12.3853 66.2146 11.8165C65.5605 10.3353 64.9396 8.61235 64.2501 7.11443C63.9209 6.39777 63.3646 5.67485 62.9063 5.03943C62.4 4.33527 61.8313 3.81652 61.4396 2.96444C61.3 2.66235 61.1105 2.17694 61.3167 1.86444C61.3834 1.65402 61.475 1.56652 61.6834 1.49777C62.0375 1.22277 63.023 1.58735 63.3938 1.74152C64.373 2.14777 65.1896 2.53527 66.0188 3.08527C66.4167 3.34985 66.8188 3.86027 67.3001 4.00194C67.4834 4.00194 67.6667 4.00194 67.8501 4.00194C68.7105 4.19985 69.673 4.06443 70.475 4.30818C71.8959 4.73943 73.1667 5.41027 74.3209 6.13944C77.8417 8.36235 80.7188 11.5249 82.6875 15.2999C83.0042 15.9082 83.1417 16.4874 83.4188 17.1311C83.9813 18.4311 84.6917 19.7686 85.25 21.0394C85.8084 22.3082 86.3542 23.5873 87.1438 24.6436C87.5605 25.1978 89.1646 25.4957 89.8917 25.804C90.4021 26.0207 91.2396 26.2436 91.723 26.5353C92.648 27.0936 93.5438 27.7582 94.4084 28.3665C94.8501 28.6728 96.1813 29.3415 96.248 29.8936Z" fill="white"/>
<path d="M68.954 6.63107C68.5061 6.62273 68.1894 6.67898 67.854 6.75398C67.854 6.77482 67.854 6.79357 67.854 6.81649C67.8748 6.81649 67.8936 6.81649 67.9165 6.81649C68.1311 7.25399 68.5061 7.5394 68.7707 7.91649C68.9748 8.34357 69.1769 8.77065 69.3811 9.19774C69.4019 9.1769 69.4207 9.15815 69.4415 9.13732C69.8186 8.87065 69.9936 8.44565 69.9915 7.79357C69.8394 7.63315 69.8165 7.43315 69.6853 7.24357C69.5103 6.98732 69.1728 6.84357 68.954 6.63107Z" fill="white"/>
</svg>
