<svg width="57" height="57" viewBox="0 0 57 57" fill="none" xmlns="http://www.w3.org/2000/svg">
<g clip-path="url(#clip0_11_25)">
<mask id="mask0_11_25" style="mask-type:luminance" maskUnits="userSpaceOnUse" x="0" y="0" width="57" height="57">
<path d="M57 0H0V57H57V0Z" fill="white"/>
</mask>
<g mask="url(#mask0_11_25)">
<path d="M28.477 57C27.7415 57 26.9142 56.9081 26.2706 56.3564L19.2835 52.2194C18.2722 51.5758 18.7319 51.4838 19.1915 51.3C20.5706 50.9323 20.8464 50.6564 22.3174 49.921C22.4093 49.829 22.6851 49.829 22.8689 50.0129L28.2012 53.2306C28.2932 53.3226 28.5689 53.3226 28.8448 53.2306L49.7142 41.1871C49.8061 41.0951 50.0819 40.8194 50.0819 40.6355V16.4564C50.0819 16.1806 49.99 16.0887 49.7142 15.9049L28.7528 4.04517C28.6609 3.95323 28.3851 3.95323 28.1093 4.04517L7.33186 16.0887C7.23992 16.1806 6.96412 16.4564 6.96412 16.6403V40.6355C6.96412 40.9113 7.05605 41.0032 7.33186 41.1871L13.0319 44.4049C16.1577 45.9677 18.0883 44.129 18.0883 42.1983V18.6629C18.0883 18.2951 18.3642 18.0194 18.7319 18.0194H21.398C21.7657 18.0194 22.0415 18.2951 22.0415 18.6629V42.3823C22.0415 46.5194 19.8351 48.8177 15.9738 48.8177C14.6867 48.8177 13.9512 48.8177 11.1932 47.5306L5.76895 44.4968C4.48186 43.7613 3.5625 42.2903 3.5625 40.6355V16.4564C3.5625 14.8936 4.29799 13.5145 5.76895 12.5951L26.4544 0.551613C27.7415 -0.183871 29.5802 -0.183871 30.8674 0.551613L51.7367 12.6871C53.0238 13.4226 53.9432 14.8936 53.9432 16.5483V40.5436C53.9432 42.1064 53.2077 43.4855 51.7367 44.4049L30.9593 56.3564C30.04 56.9081 29.3045 57 28.477 57ZM45.3012 33.2806C45.3012 28.7758 42.3593 27.5806 35.8319 26.6613C29.3045 25.7419 28.7528 25.3742 28.7528 23.8113C28.7528 22.5242 29.3044 20.8694 34.0851 20.8694C38.3142 20.8694 39.877 21.7887 40.5206 24.7306C40.6125 25.0064 40.7964 25.0983 41.1642 25.0983H43.8302C43.9222 25.0983 44.198 25.0064 44.198 25.0064C44.198 25.0064 44.29 24.7306 44.29 24.6387C43.9222 19.5823 40.5206 17.3758 33.9932 17.3758C28.0174 17.3758 24.4319 19.8581 24.4319 24.0871C24.4319 28.5919 28.0174 29.879 33.6255 30.4306C40.4287 31.0742 40.9802 32.0855 40.9802 33.3726C40.9802 35.671 39.1415 36.5903 34.8206 36.5903C29.3044 36.5903 28.1093 35.2113 27.7415 32.4532C27.6496 32.1774 27.4657 31.9017 27.098 31.9017H24.6157C24.248 31.9017 23.9722 32.1774 23.9722 32.5451C23.9722 36.0387 25.8109 40.2677 34.9125 40.2677C41.5319 40.4517 45.3012 37.8774 45.3012 33.2806Z" fill="white"/>
</g>
</g>
<defs>
<clipPath id="clip0_11_25">
<rect width="57" height="57" fill="white"/>
</clipPath>
</defs>
</svg>
