<svg width="57" height="57" viewBox="0 0 57 57" fill="none" xmlns="http://www.w3.org/2000/svg">
<path d="M28.5 15.497C43.2844 15.497 54.5953 21.6423 54.5953 28.5892C54.5953 35.5361 43.2844 41.7705 28.5 41.7705C13.7156 41.7705 2.40469 35.5361 2.40469 28.5892C2.40469 21.6423 13.7156 15.497 28.5 15.497ZM28.5 13.983C13.1812 13.983 0.890625 20.4845 0.890625 28.5002C0.890625 36.5158 13.1812 42.9283 28.5 42.9283C43.8188 42.9283 56.1094 36.5158 56.1094 28.5002C56.1094 20.4845 43.8188 13.983 28.5 13.983ZM19.6828 27.4314C19.0594 30.9048 16.5656 30.5486 13.6266 30.5486L14.8734 24.4033C18.1688 24.4033 20.3062 24.047 19.6828 27.4314ZM9.2625 36.6939H12.4688L13.1813 32.7752C16.6547 32.7752 18.9703 33.0423 20.9297 31.172C23.1562 29.0345 23.7797 25.383 22.1766 23.6017C21.2859 22.622 20.0391 22.0877 18.1687 22.0877H12.0234L9.2625 36.6939ZM25.3828 18.258H28.5L27.7875 22.1767C30.4594 22.1767 33.0422 22.0877 34.2891 23.1564C35.5359 24.4033 34.9125 25.8283 33.6656 32.9533H30.3703C31.6172 26.1845 31.8844 25.5611 31.5281 25.0267C31.1719 24.4923 29.7469 24.4923 27.2531 24.4923L25.65 32.9533H22.5328L25.3828 18.258ZM44.4422 27.4314C43.8188 30.9048 41.325 30.5486 38.3859 30.5486L39.6328 24.4033C42.9281 24.4033 45.0656 24.047 44.4422 27.4314ZM34.0219 36.6939H37.1391L37.8516 32.9533C41.5922 32.9533 43.6406 33.2205 45.6 31.3502C47.8266 29.2127 48.45 25.5611 46.8469 23.7798C45.9562 22.8002 44.7094 22.2658 42.8391 22.2658H36.6938L34.0219 36.6939Z" fill="white"/>
</svg>
