<svg width="57" height="57" viewBox="0 0 57 57" fill="none" xmlns="http://www.w3.org/2000/svg">
<path d="M54.9516 21.3746C53.9719 17.634 52.1906 14.6949 48.45 14.6949H43.4625V20.5731C43.4625 25.1152 39.5438 28.9449 35.3578 28.9449H22.0875C18.4359 28.9449 15.5859 32.0621 15.5859 35.7137V48.2715C15.5859 51.7449 18.7031 53.8824 22.0875 55.0402C26.1844 56.2871 30.1922 56.5543 35.2687 55.0402C38.5641 54.0606 41.7703 52.1902 41.7703 48.2715V43.284H28.6781V41.6809H48.45C52.1906 41.6809 53.7047 39.009 54.9516 35.0012C56.2875 30.6371 56.2875 26.6293 54.9516 21.3746ZM36.0703 46.3121C37.4062 46.3121 38.5641 47.4699 38.5641 48.8059C38.5641 50.1418 37.4062 51.2996 36.0703 51.2996C34.7344 51.3887 33.5766 50.1418 33.5766 48.8059C33.4875 47.4699 34.6453 46.3121 36.0703 46.3121ZM21.4641 27.2527H34.6453C38.2969 27.2527 41.1469 24.2246 41.1469 20.484V8.10431C41.1469 4.63087 38.1188 1.959 34.6453 1.33556C30.2813 0.712121 25.4719 0.712121 21.4641 1.33556C15.8531 2.31525 14.9625 4.36369 14.9625 8.10431V13.0918H28.1438V14.6949H10.1531C6.4125 14.6949 3.02812 17.0996 2.04844 21.3746C0.801562 26.3621 0.801562 29.4793 2.04844 34.6449C3.02812 38.5637 5.16562 41.3246 9.08437 41.3246H13.3594V35.3574C13.2703 30.9934 17.1 27.2527 21.4641 27.2527ZM20.6625 9.70743C19.3266 9.70743 18.1687 8.54962 18.1687 7.21369C18.1687 5.87775 19.3266 4.71993 20.6625 4.71993C21.9984 4.71993 23.1562 5.87775 23.1562 7.21369C23.1562 8.54962 21.9984 9.70743 20.6625 9.70743Z" fill="white"/>
</svg>
