<svg width="58" height="51" viewBox="0 0 58 51" fill="none" xmlns="http://www.w3.org/2000/svg">
<path d="M46.9202 16.2894C46.3144 16.0875 45.7085 15.8967 45.1027 15.7172C45.2036 15.3021 45.2934 14.887 45.3832 14.4718C46.7632 7.78498 45.8544 2.4108 42.7914 0.638112C39.8407 -1.05604 35.0275 0.70543 30.1582 4.94643C29.6758 5.36155 29.2045 5.79911 28.7558 6.23668C28.4528 5.94497 28.1387 5.65326 27.8245 5.37277C22.7196 0.840065 17.6035 -1.06726 14.5406 0.71665C11.601 2.42202 10.7259 7.48205 11.9601 13.8099C12.0835 14.4382 12.2181 15.0553 12.3752 15.6836C11.6571 15.8855 10.9503 16.1099 10.2883 16.3455C4.29709 18.4211 0 21.6972 0 25.0856C0 28.5861 4.57758 32.0978 10.8044 34.2295C11.3093 34.3978 11.8142 34.5661 12.3303 34.7119C12.162 35.3851 12.0162 36.0471 11.8815 36.7315C10.7035 42.9583 11.6235 47.8949 14.563 49.5891C17.5923 51.3393 22.686 49.5442 27.645 45.2022C28.0377 44.8544 28.4304 44.4954 28.8231 44.1139C29.3167 44.5964 29.8328 45.0564 30.3489 45.5052C35.1509 49.634 39.8968 51.3057 42.8251 49.6115C45.8544 47.8613 46.8417 42.5544 45.5627 36.092C45.4617 35.5983 45.3495 35.0934 45.2261 34.5773C45.5851 34.4763 45.9329 34.3641 46.2807 34.2519C52.7544 32.109 57.4442 28.6422 57.4442 25.0856C57.4442 21.686 53.0237 18.3875 46.9202 16.2894ZM31.7402 6.764C35.9138 3.12886 39.807 1.70397 41.5797 2.72495C43.4758 3.81325 44.2051 8.21132 43.0158 13.9894C42.9373 14.3709 42.8588 14.7411 42.7578 15.1114C40.267 14.5504 37.7426 14.1465 35.207 13.9221C33.7485 11.8352 32.1553 9.83816 30.4275 7.96449C30.865 7.54937 31.2914 7.15668 31.7402 6.764ZM18.7591 30.9085C19.3313 31.8846 19.9147 32.8607 20.5318 33.8144C18.7816 33.6236 17.0425 33.3432 15.3259 32.9729C15.8196 31.3573 16.4367 29.6856 17.1547 27.9802C17.6708 28.9675 18.1981 29.9436 18.7591 30.9085ZM15.3596 17.4114C16.9752 17.0523 18.6918 16.7606 20.4757 16.5362C19.8811 17.4675 19.2977 18.4211 18.7479 19.386C18.1981 20.3397 17.6596 21.3158 17.1547 22.3031C16.4479 20.6314 15.8533 18.9933 15.3596 17.4114ZM18.4338 25.1417C19.1742 23.5934 19.9821 22.0787 20.8347 20.5865C21.6874 19.0943 22.6074 17.647 23.5723 16.2221C25.2553 16.0987 26.9718 16.0314 28.7221 16.0314C30.4724 16.0314 32.2002 16.0987 33.8719 16.2221C34.8255 17.6358 35.7343 19.0831 36.5982 20.5641C37.4621 22.0451 38.27 23.5597 39.0329 25.0968C38.2812 26.6451 37.4734 28.1709 36.6095 29.6744C35.7568 31.1666 34.848 32.6139 33.8943 34.05C32.2226 34.1734 30.4836 34.2295 28.7221 34.2295C26.9606 34.2295 25.2553 34.1734 23.606 34.0724C22.6299 32.6475 21.7099 31.189 20.846 29.6968C19.9821 28.2046 19.1855 26.69 18.4338 25.1417ZM38.6963 30.8861C39.2685 29.8987 39.807 28.9002 40.3344 27.8904C41.0524 29.5173 41.6807 31.1666 42.2305 32.8607C40.4914 33.2534 38.73 33.5563 36.9573 33.7583C37.5631 32.8158 38.1353 31.851 38.6963 30.8861ZM40.3119 22.3031C39.7846 21.3158 39.2461 20.3285 38.6851 19.3636C38.1353 18.4099 37.5631 17.4675 36.9685 16.5362C38.7748 16.7606 40.5026 17.0636 42.1183 17.4338C41.6022 19.0943 40.9963 20.7099 40.3119 22.3031ZM28.7445 9.68109C29.9226 10.9601 31.0333 12.3065 32.0655 13.6977C29.8441 13.5967 27.6114 13.5967 25.3899 13.6977C26.4894 12.2504 27.6226 10.904 28.7445 9.68109ZM15.7298 2.80349C17.6147 1.70397 21.7996 3.27471 26.2089 7.17912C26.4894 7.42595 26.7699 7.69522 27.0616 7.96449C25.3226 9.83816 23.7182 11.8352 22.2484 13.9221C19.7128 14.1465 17.1996 14.5392 14.7089 15.0889C14.563 14.5167 14.4396 13.9333 14.3162 13.3499C13.2615 7.91961 13.9571 3.82447 15.7298 2.80349ZM12.981 32.3783C12.5098 32.2436 12.0498 32.0978 11.5898 31.9407C9.20005 31.189 6.48491 29.9997 4.52149 28.4402C3.38831 27.6548 2.62538 26.4431 2.41221 25.0856C2.41221 23.0324 5.95759 20.407 11.0737 18.6231C11.7132 18.3987 12.364 18.1967 13.0147 18.006C13.7776 20.4407 14.6976 22.8304 15.7635 25.1417C14.6864 27.4865 13.7552 29.91 12.981 32.3783ZM26.0631 43.3735C24.2118 45.0676 22.0689 46.414 19.7352 47.334C18.4899 47.9286 17.0537 47.9847 15.7747 47.4798C13.9908 46.4476 13.2503 42.4871 14.2601 37.1578C14.3835 36.5295 14.5181 35.9012 14.6752 35.2841C17.1884 35.8227 19.724 36.1929 22.2933 36.3837C23.7743 38.4817 25.4011 40.49 27.1401 42.3749C26.7811 42.7227 26.4221 43.0593 26.0631 43.3735ZM28.8119 40.6471C27.6675 39.4129 26.5231 38.0442 25.4123 36.5744C26.4894 36.6193 27.6001 36.6417 28.7221 36.6417C29.8777 36.6417 31.0109 36.6193 32.1328 36.5632C31.1006 37.9881 29.9899 39.3456 28.8119 40.6471ZM43.4758 44.013C43.3749 45.3818 42.7017 46.6608 41.6246 47.5247C39.8407 48.5569 36.0373 47.2105 31.9309 43.6876C31.4597 43.2837 30.9885 42.8461 30.506 42.3974C32.2226 40.5012 33.8046 38.4929 35.2407 36.3837C37.81 36.1705 40.368 35.7778 42.8924 35.2056C43.0046 35.6656 43.1056 36.1256 43.1953 36.5744C43.7451 38.9978 43.8349 41.5222 43.4758 44.013ZM45.5178 31.9519C45.2036 32.0529 44.8895 32.1539 44.5641 32.2436C43.7788 29.7978 42.8139 27.408 41.7031 25.0856C42.7802 22.7968 43.689 20.4407 44.4519 18.0284C45.0354 18.1967 45.5963 18.3763 46.1349 18.5558C51.3632 20.3509 55.032 23.0212 55.032 25.0631C55.032 27.2621 51.1164 30.1007 45.5178 31.9519ZM28.7221 30.269C31.5606 30.269 33.8607 27.969 33.8607 25.1304C33.8607 22.2919 31.5606 19.9919 28.7221 19.9919C25.8835 19.9919 23.5835 22.2919 23.5835 25.1304C23.5835 27.969 25.8835 30.269 28.7221 30.269Z" fill="white"/>
</svg>
