<svg width="58" height="44" viewBox="0 0 58 44" fill="none" xmlns="http://www.w3.org/2000/svg">
<path d="M27.0921 32.5745C27.0383 32.6714 27.0652 32.6283 27.0921 32.5745V32.5745ZM49.4534 24.7655C47.6482 24.765 45.8669 25.1795 44.2475 25.9773C43.7179 24.9092 43.1704 23.9757 43.0806 23.2756C42.9729 22.4588 42.8562 21.9741 42.9819 21.0047C43.1076 20.0353 43.673 18.662 43.6641 18.5633C43.6551 18.4646 43.5384 17.9709 42.3805 17.9619C41.2227 17.9529 40.2263 18.1863 40.1106 18.4915C39.9061 19.0492 39.747 19.6225 39.6348 20.2059C39.4284 21.256 37.32 25.0079 36.1262 26.9646C35.7313 26.2017 35.3992 25.5285 35.3274 24.9899C35.2197 24.1731 35.103 23.6884 35.2286 22.7191C35.3543 21.7497 35.9198 20.3764 35.9108 20.2777C35.9018 20.1789 35.7851 19.6853 34.6282 19.6763C33.4712 19.6673 32.474 19.9007 32.3573 20.2059C32.2406 20.511 32.115 21.2291 31.8816 21.9202C31.6482 22.6114 28.8397 28.8585 28.1046 30.4831C27.7276 31.3089 27.4045 31.9731 27.1711 32.4219C27.1352 32.4937 27.1083 32.5385 27.0903 32.5745C27.1172 32.5296 27.1352 32.4847 27.1352 32.5026C26.9377 32.8886 26.821 33.104 26.821 33.104V33.113C26.6685 33.4002 26.4979 33.6605 26.4171 33.6605C26.3633 33.6605 26.2466 32.9066 26.4441 31.8743C26.8659 29.7022 27.8622 26.3273 27.8533 26.2106C27.8443 26.1478 28.0417 25.5644 27.198 25.2502C26.3812 24.954 26.085 25.4477 26.0132 25.4477C25.9414 25.4477 25.8876 25.6272 25.8876 25.6272C25.8876 25.6272 26.7941 21.8215 24.1472 21.8215C22.4956 21.8215 20.1978 23.6346 19.0687 25.2772C18.3596 25.6631 16.8247 26.4979 15.2091 27.3865C14.5898 27.7275 13.9525 28.0776 13.3511 28.4097C13.3062 28.3648 13.2703 28.3199 13.2255 28.2751C10.013 24.8463 4.08186 22.4229 4.33318 17.8183C4.42294 16.1398 5.00636 11.7327 15.7387 6.38318C24.5349 2.00301 31.5674 3.20576 32.7783 5.88054C34.5196 9.69524 29.0183 16.7951 19.8837 17.8183C16.402 18.2043 14.5718 16.8579 14.1141 16.3553C13.6383 15.8257 13.5665 15.7988 13.387 15.8975C13.0908 16.059 13.2793 16.5258 13.387 16.804C13.6563 17.5131 14.7783 18.7697 16.6892 19.398C18.3677 19.9456 22.4499 20.2507 27.3856 18.3389C32.9308 16.2027 37.2473 10.2517 35.9817 5.27019C34.6928 0.207857 26.2987 -1.45266 18.3614 1.36573C13.6321 3.0442 8.51768 5.68307 4.83851 9.12079C0.468215 13.2137 -0.230997 16.7771 0.0562275 18.2671C1.07857 23.5538 8.36509 27.0005 11.2813 29.5496C11.1377 29.6304 11.0031 29.7022 10.8774 29.774C9.41525 30.501 3.86015 33.4092 2.46981 36.4789C0.899051 39.9615 2.73011 42.4568 3.93196 42.7978C7.68293 43.839 11.5237 41.9631 13.5872 38.8844C15.6507 35.8057 15.4003 31.7846 14.4489 29.9535C14.4399 29.9266 14.4219 29.9086 14.413 29.8817C14.7899 29.6573 15.1759 29.4329 15.5619 29.2085C16.3059 28.7687 17.033 28.3648 17.6703 28.0148C17.3112 28.9841 17.0509 30.151 16.9163 31.8384C16.7547 33.8131 17.5715 36.3712 18.6307 37.3765C19.0974 37.8163 19.662 37.8253 20.012 37.8253C21.2507 37.8253 21.8072 36.802 22.4256 35.5813C23.1886 34.0914 23.8617 32.359 23.8617 32.359C23.8617 32.359 23.018 37.0444 25.3248 37.0444C26.1676 37.0444 27.0113 35.9583 27.3892 35.4018V35.4108C27.3892 35.4108 27.4072 35.3749 27.452 35.3031C27.5418 35.1684 27.5867 35.0877 27.5867 35.0877V35.0607C27.9278 34.4773 28.6727 33.1399 29.7938 30.9319C31.2479 28.0776 32.6382 24.5142 32.6382 24.5142C32.7726 25.2975 32.9585 26.0711 33.1947 26.83C33.4461 27.6827 33.9756 28.6161 34.3975 29.5227C34.0564 29.9894 33.85 30.2587 33.85 30.2587C33.8506 30.2656 33.8538 30.272 33.8589 30.2767C33.5897 30.6357 33.2845 31.0216 32.9703 31.3986C31.8223 32.7629 30.4571 34.3247 30.2776 34.7735C30.0622 35.3031 30.116 35.698 30.5289 36.0032C30.8341 36.2366 31.3727 36.2725 31.9372 36.2276C32.9694 36.1558 33.6965 35.9045 34.0465 35.7429C34.6919 35.5115 35.3018 35.1913 35.8587 34.7915C36.9807 33.9657 37.6629 32.7809 37.6 31.2191C37.5641 30.3574 37.2859 29.4958 36.9448 28.6879C37.0435 28.5443 37.1513 28.3917 37.25 28.2392C39.0263 25.6452 40.3996 22.7981 40.3996 22.7981C40.5339 23.5814 40.7198 24.355 40.9561 25.1138C41.1715 25.8408 41.5925 26.6397 41.9784 27.4206C40.3098 28.7759 39.2776 30.3467 38.9186 31.3789C38.2544 33.2907 38.775 34.1524 39.7533 34.3499C40.1931 34.4396 40.8214 34.2332 41.2882 34.0357C41.9814 33.8048 42.6349 33.4688 43.226 33.0394C44.348 32.2136 45.4332 31.0558 45.3614 29.485C45.3345 28.7759 45.137 28.0668 44.8767 27.3847C46.2859 26.7923 48.116 26.4691 50.4497 26.7384C55.4474 27.3218 56.4258 30.4454 56.2373 31.7469C56.0488 33.0484 54.9987 33.7754 54.6486 33.9908C54.2985 34.2062 54.1908 34.287 54.2178 34.4486C54.2626 34.682 54.4242 34.673 54.7204 34.6191C55.1333 34.5473 57.3404 33.56 57.4392 31.1455C57.5828 28.0938 54.6486 24.7368 49.4507 24.7637L49.4534 24.7655ZM10.9313 37.7535C9.28062 39.5576 6.96487 40.2397 5.96946 39.6653C4.90134 39.0442 5.3232 36.3891 7.3598 34.4665C8.59846 33.2997 10.1952 32.2226 11.2544 31.5584C11.4967 31.4148 11.8468 31.1994 12.2776 30.9391C12.3494 30.8942 12.3853 30.8762 12.3853 30.8762C12.4661 30.8224 12.5559 30.7775 12.6456 30.7236C13.3897 33.4523 12.6726 35.8578 10.9313 37.7517V37.7535ZM22.9911 29.5496C22.4166 30.9588 21.2058 34.5491 20.4698 34.3606C19.8415 34.1991 19.4555 31.4615 20.3441 28.7687C20.7929 27.4134 21.7444 25.7978 22.3098 25.1694C23.2155 24.1552 24.2118 23.8321 24.4452 24.236C24.7593 24.7655 23.3501 28.67 22.9911 29.5496ZM32.9542 34.3068C32.7118 34.4324 32.4874 34.5132 32.3797 34.4504C32.299 34.4055 32.4785 34.235 32.4785 34.235C32.4785 34.235 33.7261 32.8976 34.2198 32.2872C34.507 31.9282 34.8391 31.5063 35.1972 31.0396C35.1972 31.0845 35.2062 31.1294 35.2062 31.1832C35.1945 32.7899 33.6516 33.8759 32.9515 34.3068H32.9542ZM40.6356 32.5565C40.4561 32.4308 40.4831 32.009 41.0844 30.6985C41.3178 30.1869 41.8554 29.3252 42.7898 28.4995C42.8956 28.812 42.9531 29.1389 42.9604 29.4688C42.9514 31.4884 41.5063 32.2423 40.6365 32.5565H40.6356Z" fill="white"/>
</svg>
