<svg width="57" height="57" viewBox="0 0 57 57" fill="none" xmlns="http://www.w3.org/2000/svg">
<path fill-rule="evenodd" clip-rule="evenodd" d="M15.6622 23.1562C17.4157 16.0315 21.8009 12.4688 28.816 12.4688C39.3391 12.4688 40.6545 20.4844 45.916 21.8203C49.4239 22.7112 52.4929 21.3753 55.1237 17.8125C53.3701 24.9372 48.9849 28.5 41.9698 28.5C31.4467 28.5 30.1314 20.4844 24.8698 19.1484C21.3619 18.2575 18.2929 19.5935 15.6622 23.1562ZM2.5083 39.1875C4.26186 32.0628 8.64703 28.5 15.6622 28.5C26.1852 28.5 27.5007 36.5156 32.7622 37.8516C36.2701 38.7425 39.3391 37.4065 41.9698 33.8438C40.2163 40.9685 35.8311 44.5312 28.816 44.5312C18.2929 44.5312 16.9776 36.5156 11.716 35.1797C8.20801 34.2888 5.13906 35.6247 2.5083 39.1875Z" fill="white"/>
</svg>
