<svg width="57" height="57" viewBox="0 0 57 57" fill="none" xmlns="http://www.w3.org/2000/svg">
<path d="M50.6423 0H5.48077C2.45429 0 0 2.49264 0 5.56641V51.4336C0 54.5074 2.45429 57 5.48077 57H50.6423C53.6688 57 56.123 54.5074 56.123 51.4336V5.56641C56.123 2.49264 53.6688 0 50.6423 0ZM32.5558 31.6172H25.5403V51.9902H19.9499V31.6172H12.9346V27.0527H32.5558V31.6172ZM50.6423 48.3275C50.2038 49.3295 49.4474 50.0754 48.5596 50.6654C47.6827 51.2109 46.6961 51.634 45.4903 51.89C44.2846 52.1461 43.0788 52.2686 41.7634 52.2686C40.448 52.2686 39.1327 52.1572 37.9269 51.9234C36.7211 51.6896 35.6359 51.3445 34.748 50.877V45.5277C34.679 45.472 34.6078 45.4174 34.5398 45.3595L34.748 45.3105V45.5277C35.6798 46.2791 36.7058 46.858 37.8283 47.2521C38.9244 47.6752 40.1302 47.8867 41.3359 47.8867C42.1033 47.8867 42.6842 47.8199 43.1994 47.6974C43.7365 47.5638 44.164 47.3857 44.5148 47.163C44.8655 46.9404 45.1265 46.6732 45.2931 46.3615C45.4598 46.0498 45.5452 45.7158 45.5452 45.3595C45.5452 44.8474 45.4028 44.4021 45.1287 44.0236C44.8766 43.6451 44.5039 43.2888 44.0325 42.966C43.5941 42.6431 43.046 42.3314 42.3884 42.0308C41.7306 41.7302 41.0619 41.4185 40.3056 41.1068C38.4422 40.2162 36.9734 39.3255 36.0306 38.1009C35.0769 36.9877 34.6056 35.5404 34.6056 33.8705C34.6056 32.5345 34.8578 31.4658 35.3729 30.5306C35.921 29.5287 36.5678 28.7939 37.4556 28.1927C38.3325 27.5804 39.3191 27.1351 40.5249 26.8568C41.7306 26.5785 42.9364 26.4338 44.2518 26.4338C45.5672 26.4338 46.6634 26.5117 47.6499 26.6675C48.6364 26.8234 49.5572 27.0683 50.3903 27.3912V32.6236C50.0066 32.3341 49.5572 32.0781 49.0749 31.8554C48.5597 31.6328 48.0554 31.4546 47.5403 31.3099C47.025 31.1652 46.5099 31.0572 46.0056 30.9871C45.5234 30.9169 45.041 30.8824 44.5806 30.8824C43.9119 30.8824 43.3419 30.9381 42.8268 31.0605C42.3006 31.183 41.8622 31.35 41.5114 31.5727C41.1606 31.7953 40.8876 32.0514 40.6893 32.3631C40.4908 32.6748 40.3933 33.0199 40.3933 33.3984C40.3933 33.8104 40.5028 34.1777 40.7221 34.5117C40.9413 34.8346 41.2483 35.1463 41.6538 35.4469C42.0155 35.7363 42.5088 36.0258 43.0788 36.3152C43.7365 36.6047 44.3284 36.8941 45.0519 37.1947C46.0384 37.6178 46.9153 38.0854 47.6827 38.5307C48.4499 38.976 49.0967 39.4992 49.6558 40.0893C50.2477 40.6459 50.6752 41.3139 50.9711 42.0932C51.2671 42.8725 51.4205 43.752 51.4205 44.765C51.4205 46.2123 51.0808 47.3256 50.6423 48.3275Z" fill="white"/>
</svg>
