<svg width="58" height="58" viewBox="0 0 58 58" fill="none" xmlns="http://www.w3.org/2000/svg">
<path d="M6.21926 18.6925L17.9745 50.8891C9.75162 46.905 4.08827 38.4737 4.08827 28.7221C4.08827 25.1434 4.85264 21.7616 6.21926 18.6925ZM45.3531 27.4829C45.3531 24.4369 44.2645 22.3291 43.3264 20.6845C42.0756 18.6578 40.9058 16.9321 40.9058 14.9054C40.9058 12.6354 42.6199 10.5276 45.0404 10.5276C45.1447 10.5276 45.2489 10.5392 45.3647 10.5507C40.9753 6.53196 35.1382 4.07668 28.7221 4.07668C20.1171 4.07668 12.5428 8.48923 8.13021 15.1833C8.70928 15.2065 9.25361 15.2181 9.71687 15.2181C12.288 15.2181 16.2836 14.9054 16.2836 14.9054C17.6154 14.8243 17.766 16.7816 16.4457 16.9321C16.4457 16.9321 15.1138 17.0827 13.6314 17.1638L22.6071 43.8475L28.004 27.6798L24.1706 17.1638C22.8387 17.0827 21.5879 16.9321 21.5879 16.9321C20.256 16.8511 20.4182 14.8243 21.7385 14.9054C21.7385 14.9054 25.8036 15.2181 28.2241 15.2181C30.7952 15.2181 34.7908 14.9054 34.7908 14.9054C36.1227 14.8243 36.2732 16.7816 34.9529 16.9321C34.9529 16.9321 33.6211 17.0827 32.1386 17.1638L41.0448 43.6506L43.5001 35.4394C44.5424 32.0344 45.3531 29.5907 45.3531 27.4829ZM29.1506 30.8763L21.7616 52.3599C23.9737 53.0085 26.3016 53.3675 28.7221 53.3675C31.5943 53.3675 34.3391 52.8695 36.8986 51.9662C36.8291 51.8619 36.7712 51.7461 36.7249 51.6303L29.1506 30.8763ZM50.3447 16.8974C50.449 17.6849 50.5069 18.5188 50.5069 19.4337C50.5069 21.9353 50.0436 24.7381 48.6307 28.2588L41.1027 50.0205C48.4338 45.7469 53.3559 37.8136 53.3559 28.7221C53.3559 24.4369 52.2673 20.4066 50.3447 16.8974ZM57.4442 28.7221C57.4442 44.5656 44.554 57.4442 28.7221 57.4442C12.8786 57.4442 0 44.554 0 28.7221C0 12.8786 12.8786 0 28.7221 0C44.554 0 57.4442 12.8786 57.4442 28.7221ZM56.1239 28.7221C56.1239 13.6083 43.8244 1.32029 28.7221 1.32029C13.6083 1.32029 1.32029 13.6083 1.32029 28.7221C1.32029 43.8359 13.6198 56.1239 28.7221 56.1239C43.8359 56.1239 56.1239 43.8359 56.1239 28.7221Z" fill="white"/>
</svg>
