<svg id="visual" viewBox="0 0 960 540" width="960" height="540" xmlns="http://www.w3.org/2000/svg" xmlns:xlink="http://www.w3.org/1999/xlink" version="1.1"><rect x="0" y="0" width="960" height="540" fill="#191919"></rect><defs><linearGradient id="grad1_0" x1="43.8%" y1="0%" x2="100%" y2="100%"><stop offset="14.444444444444446%" stop-color="#f0f0f0" stop-opacity="1"></stop><stop offset="85.55555555555554%" stop-color="#f0f0f0" stop-opacity="1"></stop></linearGradient></defs><defs><linearGradient id="grad1_1" x1="43.8%" y1="0%" x2="100%" y2="100%"><stop offset="14.444444444444446%" stop-color="#f0f0f0" stop-opacity="1"></stop><stop offset="85.55555555555554%" stop-color="#b4b4b4" stop-opacity="1"></stop></linearGradient></defs><defs><linearGradient id="grad1_2" x1="43.8%" y1="0%" x2="100%" y2="100%"><stop offset="14.444444444444446%" stop-color="#7b7b7b" stop-opacity="1"></stop><stop offset="85.55555555555554%" stop-color="#b4b4b4" stop-opacity="1"></stop></linearGradient></defs><defs><linearGradient id="grad1_3" x1="43.8%" y1="0%" x2="100%" y2="100%"><stop offset="14.444444444444446%" stop-color="#7b7b7b" stop-opacity="1"></stop><stop offset="85.55555555555554%" stop-color="#474747" stop-opacity="1"></stop></linearGradient></defs><defs><linearGradient id="grad1_4" x1="43.8%" y1="0%" x2="100%" y2="100%"><stop offset="14.444444444444446%" stop-color="#191919" stop-opacity="1"></stop><stop offset="85.55555555555554%" stop-color="#474747" stop-opacity="1"></stop></linearGradient></defs><defs><linearGradient id="grad2_0" x1="0%" y1="0%" x2="56.3%" y2="100%"><stop offset="14.444444444444446%" stop-color="#f0f0f0" stop-opacity="1"></stop><stop offset="85.55555555555554%" stop-color="#f0f0f0" stop-opacity="1"></stop></linearGradient></defs><defs><linearGradient id="grad2_1" x1="0%" y1="0%" x2="56.3%" y2="100%"><stop offset="14.444444444444446%" stop-color="#b4b4b4" stop-opacity="1"></stop><stop offset="85.55555555555554%" stop-color="#f0f0f0" stop-opacity="1"></stop></linearGradient></defs><defs><linearGradient id="grad2_2" x1="0%" y1="0%" x2="56.3%" y2="100%"><stop offset="14.444444444444446%" stop-color="#b4b4b4" stop-opacity="1"></stop><stop offset="85.55555555555554%" stop-color="#7b7b7b" stop-opacity="1"></stop></linearGradient></defs><defs><linearGradient id="grad2_3" x1="0%" y1="0%" x2="56.3%" y2="100%"><stop offset="14.444444444444446%" stop-color="#474747" stop-opacity="1"></stop><stop offset="85.55555555555554%" stop-color="#7b7b7b" stop-opacity="1"></stop></linearGradient></defs><defs><linearGradient id="grad2_4" x1="0%" y1="0%" x2="56.3%" y2="100%"><stop offset="14.444444444444446%" stop-color="#474747" stop-opacity="1"></stop><stop offset="85.55555555555554%" stop-color="#191919" stop-opacity="1"></stop></linearGradient></defs><g transform="translate(960, 0)"><path d="M0 540C-36.8 507.1 -73.6 474.2 -101.7 445.5C-129.8 416.9 -149.3 392.6 -190.9 396.4C-232.5 400.3 -296.2 432.3 -336.7 422.2C-377.2 412.1 -394.6 359.9 -378.4 301.8C-362.3 243.7 -312.6 179.7 -298.2 143.6C-283.9 107.5 -304.8 99.4 -351 80.1C-397.2 60.8 -468.6 30.4 -540 0L0 0Z" fill="#2f2f2f"></path><path d="M0 432C-29.4 405.7 -58.8 379.3 -81.4 356.4C-103.9 333.5 -119.5 314.1 -152.7 317.1C-186 320.2 -236.9 345.8 -269.3 337.8C-301.8 329.7 -315.6 287.9 -302.7 241.4C-289.8 194.9 -250.1 143.7 -238.6 114.9C-227.1 86 -243.8 79.5 -280.8 64.1C-317.7 48.7 -374.9 24.3 -432 0L0 0Z" fill="#616161"></path><path d="M0 324C-22.1 304.3 -44.1 284.5 -61 267.3C-77.9 250.2 -89.6 235.6 -114.5 237.9C-139.5 240.2 -177.7 259.4 -202 253.3C-226.3 247.3 -236.7 215.9 -227 181.1C-217.4 146.2 -187.6 107.8 -178.9 86.2C-170.3 64.5 -182.9 59.6 -210.6 48.1C-238.3 36.5 -281.1 18.2 -324 0L0 0Z" fill="#979797"></path><path d="M0 216C-14.7 202.8 -29.4 189.7 -40.7 178.2C-51.9 166.8 -59.7 157 -76.4 158.6C-93 160.1 -118.5 172.9 -134.7 168.9C-150.9 164.8 -157.8 143.9 -151.4 120.7C-144.9 97.5 -125 71.9 -119.3 57.4C-113.5 43 -121.9 39.8 -140.4 32C-158.9 24.3 -187.4 12.2 -216 0L0 0Z" fill="#d2d2d2"></path><path d="M0 108C-7.4 101.4 -14.7 94.8 -20.3 89.1C-26 83.4 -29.9 78.5 -38.2 79.3C-46.5 80.1 -59.2 86.5 -67.3 84.4C-75.4 82.4 -78.9 72 -75.7 60.4C-72.5 48.7 -62.5 35.9 -59.6 28.7C-56.8 21.5 -61 19.9 -70.2 16C-79.4 12.2 -93.7 6.1 -108 0L0 0Z" fill="#f0f0f0"></path></g><g transform="translate(0, 540)"><path d="M0 -540C39.7 -504.8 79.3 -469.6 94.3 -413.4C109.4 -357.1 99.8 -279.9 136.2 -282.9C172.6 -285.9 255 -369.2 308 -386.2C361 -403.3 384.6 -354.1 385.4 -307.4C386.2 -260.6 364.2 -216.3 391 -188.3C417.8 -160.4 493.5 -148.8 526.5 -120.2C559.4 -91.5 549.7 -45.8 540 0L0 0Z" fill="#2f2f2f"></path><path d="M0 -432C31.7 -403.8 63.4 -375.7 75.5 -330.7C87.5 -285.7 79.9 -223.9 109 -226.3C138.1 -228.7 204 -295.3 246.4 -309C288.8 -322.6 307.7 -283.3 308.4 -245.9C309 -208.5 291.4 -173 312.8 -150.6C334.3 -128.3 394.8 -119 421.2 -96.1C447.5 -73.2 439.8 -36.6 432 0L0 0Z" fill="#616161"></path><path d="M0 -324C23.8 -302.9 47.6 -281.8 56.6 -248C65.6 -214.3 59.9 -167.9 81.7 -169.7C103.6 -171.5 153 -221.5 184.8 -231.7C216.6 -242 230.8 -212.5 231.3 -184.4C231.7 -156.4 218.5 -129.8 234.6 -113C250.7 -96.2 296.1 -89.3 315.9 -72.1C335.7 -54.9 329.8 -27.5 324 0L0 0Z" fill="#979797"></path><path d="M0 -216C15.9 -201.9 31.7 -187.8 37.7 -165.3C43.8 -142.9 39.9 -112 54.5 -113.2C69.1 -114.4 102 -147.7 123.2 -154.5C144.4 -161.3 153.9 -141.7 154.2 -123C154.5 -104.2 145.7 -86.5 156.4 -75.3C167.1 -64.1 197.4 -59.5 210.6 -48.1C223.8 -36.6 219.9 -18.3 216 0L0 0Z" fill="#d2d2d2"></path><path d="M0 -108C7.9 -101 15.9 -93.9 18.9 -82.7C21.9 -71.4 20 -56 27.2 -56.6C34.5 -57.2 51 -73.8 61.6 -77.2C72.2 -80.7 76.9 -70.8 77.1 -61.5C77.2 -52.1 72.8 -43.3 78.2 -37.7C83.6 -32.1 98.7 -29.8 105.3 -24C111.9 -18.3 109.9 -9.2 108 0L0 0Z" fill="#f0f0f0"></path></g></svg>