<svg id="visual" viewBox="0 0 1400 700" width="1400" height="700" xmlns="http://www.w3.org/2000/svg" xmlns:xlink="http://www.w3.org/1999/xlink" version="1.1"><rect x="0" y="0" width="1400" height="700" fill="#191919"></rect><defs><linearGradient id="grad1_0" x1="50%" y1="0%" x2="100%" y2="100%"><stop offset="10%" stop-color="#fbae3c" stop-opacity="1"></stop><stop offset="90%" stop-color="#fbae3c" stop-opacity="1"></stop></linearGradient></defs><defs><linearGradient id="grad1_1" x1="50%" y1="0%" x2="100%" y2="100%"><stop offset="10%" stop-color="#fbae3c" stop-opacity="1"></stop><stop offset="90%" stop-color="#d79638" stop-opacity="1"></stop></linearGradient></defs><defs><linearGradient id="grad1_2" x1="50%" y1="0%" x2="100%" y2="100%"><stop offset="10%" stop-color="#b47f34" stop-opacity="1"></stop><stop offset="90%" stop-color="#d79638" stop-opacity="1"></stop></linearGradient></defs><defs><linearGradient id="grad1_3" x1="50%" y1="0%" x2="100%" y2="100%"><stop offset="10%" stop-color="#b47f34" stop-opacity="1"></stop><stop offset="90%" stop-color="#936930" stop-opacity="1"></stop></linearGradient></defs><defs><linearGradient id="grad1_4" x1="50%" y1="0%" x2="100%" y2="100%"><stop offset="10%" stop-color="#72532b" stop-opacity="1"></stop><stop offset="90%" stop-color="#936930" stop-opacity="1"></stop></linearGradient></defs><defs><linearGradient id="grad1_5" x1="50%" y1="0%" x2="100%" y2="100%"><stop offset="10%" stop-color="#72532b" stop-opacity="1"></stop><stop offset="90%" stop-color="#533f25" stop-opacity="1"></stop></linearGradient></defs><defs><linearGradient id="grad1_6" x1="50%" y1="0%" x2="100%" y2="100%"><stop offset="10%" stop-color="#362b20" stop-opacity="1"></stop><stop offset="90%" stop-color="#533f25" stop-opacity="1"></stop></linearGradient></defs><defs><linearGradient id="grad1_7" x1="50%" y1="0%" x2="100%" y2="100%"><stop offset="10%" stop-color="#362b20" stop-opacity="1"></stop><stop offset="90%" stop-color="#191919" stop-opacity="1"></stop></linearGradient></defs><defs><linearGradient id="grad2_0" x1="0%" y1="0%" x2="50%" y2="100%"><stop offset="10%" stop-color="#fbae3c" stop-opacity="1"></stop><stop offset="90%" stop-color="#fbae3c" stop-opacity="1"></stop></linearGradient></defs><defs><linearGradient id="grad2_1" x1="0%" y1="0%" x2="50%" y2="100%"><stop offset="10%" stop-color="#d79638" stop-opacity="1"></stop><stop offset="90%" stop-color="#fbae3c" stop-opacity="1"></stop></linearGradient></defs><defs><linearGradient id="grad2_2" x1="0%" y1="0%" x2="50%" y2="100%"><stop offset="10%" stop-color="#d79638" stop-opacity="1"></stop><stop offset="90%" stop-color="#b47f34" stop-opacity="1"></stop></linearGradient></defs><defs><linearGradient id="grad2_3" x1="0%" y1="0%" x2="50%" y2="100%"><stop offset="10%" stop-color="#936930" stop-opacity="1"></stop><stop offset="90%" stop-color="#b47f34" stop-opacity="1"></stop></linearGradient></defs><defs><linearGradient id="grad2_4" x1="0%" y1="0%" x2="50%" y2="100%"><stop offset="10%" stop-color="#936930" stop-opacity="1"></stop><stop offset="90%" stop-color="#72532b" stop-opacity="1"></stop></linearGradient></defs><defs><linearGradient id="grad2_5" x1="0%" y1="0%" x2="50%" y2="100%"><stop offset="10%" stop-color="#533f25" stop-opacity="1"></stop><stop offset="90%" stop-color="#72532b" stop-opacity="1"></stop></linearGradient></defs><defs><linearGradient id="grad2_6" x1="0%" y1="0%" x2="50%" y2="100%"><stop offset="10%" stop-color="#533f25" stop-opacity="1"></stop><stop offset="90%" stop-color="#362b20" stop-opacity="1"></stop></linearGradient></defs><defs><linearGradient id="grad2_7" x1="0%" y1="0%" x2="50%" y2="100%"><stop offset="10%" stop-color="#191919" stop-opacity="1"></stop><stop offset="90%" stop-color="#362b20" stop-opacity="1"></stop></linearGradient></defs><g transform="translate(1400, 0)"><path d="M0 700C-25.9 673.6 -51.8 647.1 -77.1 635.3C-102.5 623.6 -127.1 626.4 -156 633.1C-184.9 639.7 -218 650 -242.2 638.6C-266.4 627.2 -281.7 594.1 -300.2 572C-318.7 549.9 -340.3 538.9 -367 531.6C-393.6 524.4 -425.3 521.1 -450.3 508.2C-475.2 495.4 -493.4 473.2 -505.2 447.6C-517.1 422 -522.5 393.1 -532.5 367.5C-542.4 341.9 -556.9 319.7 -562.3 295.1C-567.6 270.5 -563.9 243.7 -590.9 224.1C-617.9 204.5 -675.7 192.1 -679.7 167.5C-683.7 143 -633.9 106.2 -628.4 76.3C-622.8 46.4 -661.4 23.2 -700 0L0 0Z" fill="#27221c"></path><path d="M0 612.5C-22.7 589.4 -45.4 566.2 -67.5 555.9C-89.6 545.6 -111.3 548.1 -136.5 553.9C-161.8 559.7 -190.7 568.8 -211.9 558.8C-233.1 548.8 -246.5 519.8 -262.7 500.5C-278.9 481.2 -297.8 471.5 -321.1 465.2C-344.4 458.9 -372.1 455.9 -394 444.7C-415.8 433.5 -431.7 414 -442.1 391.7C-452.4 369.3 -457.2 344 -465.9 321.6C-474.6 299.2 -487.3 279.7 -492 258.2C-496.7 236.7 -493.4 213.3 -517.1 196.1C-540.7 178.9 -591.2 168.1 -594.7 146.6C-598.2 125.1 -554.7 93 -549.8 66.8C-545 40.6 -578.7 20.3 -612.5 0L0 0Z" fill="#443523"></path><path d="M0 525C-19.4 505.2 -38.9 485.3 -57.9 476.5C-76.8 467.7 -95.4 469.8 -117 474.8C-138.7 479.8 -163.5 487.5 -181.6 479C-199.8 470.4 -211.3 445.6 -225.2 429C-239 412.4 -255.2 404.1 -275.2 398.7C-295.2 393.3 -319 390.8 -337.7 381.2C-356.4 371.6 -370.1 354.9 -378.9 335.7C-387.8 316.5 -391.9 294.8 -399.4 275.7C-406.8 256.5 -417.7 239.7 -421.7 221.3C-425.7 202.9 -422.9 182.8 -443.2 168.1C-463.5 153.4 -506.7 144.1 -509.7 125.6C-512.7 107.2 -475.5 79.7 -471.3 57.2C-467.1 34.8 -496.1 17.4 -525 0L0 0Z" fill="#634928"></path><path d="M0 437.5C-16.2 421 -32.4 404.4 -48.2 397.1C-64 389.7 -79.5 391.5 -97.5 395.7C-115.6 399.8 -136.2 406.3 -151.4 399.1C-166.5 392 -176.1 371.3 -187.6 357.5C-199.2 343.7 -212.7 336.8 -229.4 332.3C-246 327.8 -265.8 325.7 -281.4 317.6C-297 309.6 -308.4 295.7 -315.8 279.8C-323.2 263.8 -326.6 245.7 -332.8 229.7C-339 213.7 -348.1 199.8 -351.4 184.4C-354.8 169.1 -352.5 152.3 -369.3 140.1C-386.2 127.8 -422.3 120.1 -424.8 104.7C-427.3 89.3 -396.2 66.4 -392.7 47.7C-389.3 29 -413.4 14.5 -437.5 0L0 0Z" fill="#825e2e"></path><path d="M0 350C-13 336.8 -25.9 323.6 -38.6 317.7C-51.2 311.8 -63.6 313.2 -78 316.5C-92.5 319.8 -109 325 -121.1 319.3C-133.2 313.6 -140.9 297 -150.1 286C-159.3 275 -170.2 269.4 -183.5 265.8C-196.8 262.2 -212.7 260.5 -225.1 254.1C-237.6 247.7 -246.7 236.6 -252.6 223.8C-258.5 211 -261.3 196.6 -266.2 183.8C-271.2 171 -278.4 159.8 -281.1 147.5C-283.8 135.3 -282 121.9 -295.5 112.1C-309 102.2 -337.8 96 -339.8 83.8C-341.8 71.5 -317 53.1 -314.2 38.1C-311.4 23.2 -330.7 11.6 -350 0L0 0Z" fill="#a47432"></path><path d="M0 262.5C-9.7 252.6 -19.4 242.7 -28.9 238.3C-38.4 233.8 -47.7 234.9 -58.5 237.4C-69.3 239.9 -81.7 243.8 -90.8 239.5C-99.9 235.2 -105.6 222.8 -112.6 214.5C-119.5 206.2 -127.6 202.1 -137.6 199.4C-147.6 196.7 -159.5 195.4 -168.8 190.6C-178.2 185.8 -185 177.4 -189.5 167.9C-193.9 158.3 -195.9 147.4 -199.7 137.8C-203.4 128.2 -208.8 119.9 -210.8 110.7C-212.9 101.5 -211.5 91.4 -221.6 84C-231.7 76.7 -253.4 72 -254.9 62.8C-256.4 53.6 -237.7 39.8 -235.6 28.6C-233.6 17.4 -248 8.7 -262.5 0L0 0Z" fill="#c68b37"></path><path d="M0 175C-6.5 168.4 -13 161.8 -19.3 158.8C-25.6 155.9 -31.8 156.6 -39 158.3C-46.2 159.9 -54.5 162.5 -60.5 159.7C-66.6 156.8 -70.4 148.5 -75.1 143C-79.7 137.5 -85.1 134.7 -91.7 132.9C-98.4 131.1 -106.3 130.3 -112.6 127.1C-118.8 123.9 -123.4 118.3 -126.3 111.9C-129.3 105.5 -130.6 98.3 -133.1 91.9C-135.6 85.5 -139.2 79.9 -140.6 73.8C-141.9 67.6 -141 60.9 -147.7 56C-154.5 51.1 -168.9 48 -169.9 41.9C-170.9 35.7 -158.5 26.6 -157.1 19.1C-155.7 11.6 -165.4 5.8 -175 0L0 0Z" fill="#e9a23a"></path><path d="M0 87.5C-3.2 84.2 -6.5 80.9 -9.6 79.4C-12.8 77.9 -15.9 78.3 -19.5 79.1C-23.1 80 -27.2 81.3 -30.3 79.8C-33.3 78.4 -35.2 74.3 -37.5 71.5C-39.8 68.7 -42.5 67.4 -45.9 66.5C-49.2 65.6 -53.2 65.1 -56.3 63.5C-59.4 61.9 -61.7 59.1 -63.2 56C-64.6 52.8 -65.3 49.1 -66.6 45.9C-67.8 42.7 -69.6 40 -70.3 36.9C-71 33.8 -70.5 30.5 -73.9 28C-77.2 25.6 -84.5 24 -85 20.9C-85.5 17.9 -79.2 13.3 -78.5 9.5C-77.9 5.8 -82.7 2.9 -87.5 0L0 0Z" fill="#fbae3c"></path></g><g transform="translate(0, 700)"><path d="M0 -700C23.9 -664.9 47.9 -629.9 76.7 -631.4C105.5 -632.9 139.2 -670.9 165.6 -671.9C192 -672.9 211.2 -636.8 235.1 -619.9C259 -603 287.5 -605.3 313.2 -596.8C338.9 -588.3 361.7 -569 374.4 -542.3C387 -515.7 389.5 -481.6 419.1 -473.1C448.7 -464.5 505.6 -481.5 524 -464.2C542.4 -446.9 522.3 -395.3 530 -365.8C537.7 -336.4 573.1 -329 587.9 -308.6C602.8 -288.1 597.2 -254.5 595.6 -225.9C594.1 -197.3 596.6 -173.7 613.6 -151.2C630.7 -128.8 662.2 -107.5 679 -82.4C695.8 -57.4 697.9 -28.7 700 0L0 0Z" fill="#27221c"></path><path d="M0 -612.5C20.9 -581.8 41.9 -551.1 67.1 -552.4C92.3 -553.7 121.8 -587 144.9 -587.9C168 -588.8 184.8 -557.2 205.7 -542.4C226.6 -527.6 251.6 -529.6 274.1 -522.2C296.5 -514.8 316.5 -497.9 327.6 -474.6C338.6 -451.2 340.8 -421.4 366.7 -413.9C392.6 -406.4 442.4 -421.3 458.5 -406.2C474.6 -391 457 -345.9 463.8 -320.1C470.5 -294.3 501.4 -287.9 514.4 -270C527.5 -252.1 522.5 -222.7 521.2 -197.6C519.8 -172.6 522 -152 536.9 -132.3C551.8 -112.7 579.4 -94 594.1 -72.1C608.8 -50.2 610.7 -25.1 612.5 0L0 0Z" fill="#443523"></path><path d="M0 -525C17.9 -498.7 35.9 -472.4 57.5 -473.5C79.1 -474.6 104.4 -503.2 124.2 -503.9C144 -504.7 158.4 -477.6 176.3 -464.9C194.2 -452.3 215.7 -454 234.9 -447.6C254.2 -441.2 271.3 -426.8 280.8 -406.8C290.2 -386.8 292.1 -361.2 314.3 -354.8C336.6 -348.4 379.2 -361.1 393 -348.1C406.8 -335.2 391.7 -296.5 397.5 -274.4C403.3 -252.3 429.8 -246.8 441 -231.4C452.1 -216.1 447.9 -190.9 446.7 -169.4C445.5 -148 447.4 -130.3 460.2 -113.4C473 -96.6 496.7 -80.6 509.3 -61.8C521.9 -43.1 523.4 -21.5 525 0L0 0Z" fill="#634928"></path><path d="M0 -437.5C15 -415.6 29.9 -393.7 47.9 -394.6C65.9 -395.5 87 -419.3 103.5 -419.9C120 -420.6 132 -398 146.9 -387.4C161.9 -376.9 179.7 -378.3 195.8 -373C211.8 -367.7 226.1 -355.6 234 -339C241.9 -322.3 243.4 -301 261.9 -295.7C280.5 -290.3 316 -300.9 327.5 -290.1C339 -279.3 326.5 -247.1 331.3 -228.6C336.1 -210.2 358.2 -205.7 367.5 -192.9C376.8 -180.1 373.2 -159.1 372.3 -141.2C371.3 -123.3 372.9 -108.6 383.5 -94.5C394.2 -80.5 413.9 -67.2 424.4 -51.5C434.9 -35.9 436.2 -17.9 437.5 0L0 0Z" fill="#825e2e"></path><path d="M0 -350C12 -332.5 23.9 -314.9 38.3 -315.7C52.7 -316.4 69.6 -335.5 82.8 -335.9C96 -336.4 105.6 -318.4 117.6 -310C129.5 -301.5 143.8 -302.6 156.6 -298.4C169.5 -294.1 180.9 -284.5 187.2 -271.2C193.5 -257.8 194.7 -240.8 209.5 -236.5C224.4 -232.3 252.8 -240.7 262 -232.1C271.2 -223.4 261.2 -197.6 265 -182.9C268.8 -168.2 286.5 -164.5 294 -154.3C301.4 -144.1 298.6 -127.2 297.8 -112.9C297 -98.6 298.3 -86.9 306.8 -75.6C315.3 -64.4 331.1 -53.7 339.5 -41.2C347.9 -28.7 349 -14.4 350 0L0 0Z" fill="#a47432"></path><path d="M0 -262.5C9 -249.4 17.9 -236.2 28.7 -236.8C39.6 -237.3 52.2 -251.6 62.1 -252C72 -252.3 79.2 -238.8 88.2 -232.5C97.1 -226.1 107.8 -227 117.5 -223.8C127.1 -220.6 135.6 -213.4 140.4 -203.4C145.1 -193.4 146 -180.6 157.2 -177.4C168.3 -174.2 189.6 -180.6 196.5 -174.1C203.4 -167.6 195.9 -148.2 198.8 -137.2C201.6 -126.1 214.9 -123.4 220.5 -115.7C226.1 -108 223.9 -95.4 223.4 -84.7C222.8 -74 223.7 -65.1 230.1 -56.7C236.5 -48.3 248.3 -40.3 254.6 -30.9C260.9 -21.5 261.7 -10.8 262.5 0L0 0Z" fill="#c68b37"></path><path d="M0 -175C6 -166.2 12 -157.5 19.2 -157.8C26.4 -158.2 34.8 -167.7 41.4 -168C48 -168.2 52.8 -159.2 58.8 -155C64.7 -150.8 71.9 -151.3 78.3 -149.2C84.7 -147.1 90.4 -142.3 93.6 -135.6C96.7 -128.9 97.4 -120.4 104.8 -118.3C112.2 -116.1 126.4 -120.4 131 -116C135.6 -111.7 130.6 -98.8 132.5 -91.5C134.4 -84.1 143.3 -82.3 147 -77.1C150.7 -72 149.3 -63.6 148.9 -56.5C148.5 -49.3 149.1 -43.4 153.4 -37.8C157.7 -32.2 165.6 -26.9 169.8 -20.6C174 -14.4 174.5 -7.2 175 0L0 0Z" fill="#e9a23a"></path><path d="M0 -87.5C3 -83.1 6 -78.7 9.6 -78.9C13.2 -79.1 17.4 -83.9 20.7 -84C24 -84.1 26.4 -79.6 29.4 -77.5C32.4 -75.4 35.9 -75.7 39.2 -74.6C42.4 -73.5 45.2 -71.1 46.8 -67.8C48.4 -64.5 48.7 -60.2 52.4 -59.1C56.1 -58.1 63.2 -60.2 65.5 -58C67.8 -55.9 65.3 -49.4 66.3 -45.7C67.2 -42 71.6 -41.1 73.5 -38.6C75.4 -36 74.6 -31.8 74.5 -28.2C74.3 -24.7 74.6 -21.7 76.7 -18.9C78.8 -16.1 82.8 -13.4 84.9 -10.3C87 -7.2 87.2 -3.6 87.5 0L0 0Z" fill="#fbae3c"></path></g></svg>